HIERARCHY
ROOT Hips
{
	OFFSET -0.001795 -0.223333 0.028219
	CHANNELS 6 Xposition Yposition Zposition Zrotation Yrotation Xrotation 
	JOINT LeftUpLeg
	{
		OFFSET 0.069520 -0.091406 -0.006815
		CHANNELS 3 Zrotation Yrotation Xrotation
		JOINT LeftLeg
		{
			OFFSET 0.034277 -0.375199 -0.004496
			CHANNELS 3 Zrotation Yrotation Xrotation
			JOINT LeftFoot
			{
				OFFSET -0.013596 -0.397961 -0.043693
				CHANNELS 3 Zrotation Yrotation Xrotation
				JOINT LeftToe
				{
					OFFSET 0.026358 -0.055791 0.119288
					CHANNELS 3 Zrotation Yrotation Xrotation
					End Site
					{
						OFFSET 0.000000 0.000000 0.000000
					}
				}
			}
		}
	}
	JOINT RightUpLeg
	{
		OFFSET -0.067670 -0.090522 -0.004320
		CHANNELS 3 Zrotation Yrotation Xrotation
		JOINT RightLeg
		{
			OFFSET -0.038290 -0.382569 -0.008850
			CHANNELS 3 Zrotation Yrotation Xrotation
			JOINT RightFoot
			{
				OFFSET 0.015774 -0.398415 -0.042312
				CHANNELS 3 Zrotation Yrotation Xrotation
				JOINT RightToe
				{
					OFFSET -0.025372 -0.048144 0.123348
					CHANNELS 3 Zrotation Yrotation Xrotation
					End Site
					{
						OFFSET 0.000000 0.000000 0.000000
					}
				}
			}
		}
	}
	JOINT Spine
	{
		OFFSET -0.002533 0.108963 -0.026696
		CHANNELS 3 Zrotation Yrotation Xrotation
		JOINT Spine1
		{
			OFFSET 0.005487 0.135180 0.001092
			CHANNELS 3 Zrotation Yrotation Xrotation
			JOINT Spine2
			{
				OFFSET 0.001457 0.052922 0.025425
				CHANNELS 3 Zrotation Yrotation Xrotation
				JOINT Neck
				{
					OFFSET -0.002778 0.213870 -0.042857
					CHANNELS 3 Zrotation Yrotation Xrotation
					JOINT Head
					{
						OFFSET 0.005152 0.064970 0.051349
						CHANNELS 3 Zrotation Yrotation Xrotation
						End Site
						{
							OFFSET 0.000000 0.000000 0.000000
						}
					}
				}
				JOINT LeftShoulder
				{
					OFFSET 0.078845 0.121749 -0.034090
					CHANNELS 3 Zrotation Yrotation Xrotation
					JOINT LeftArm
					{
						OFFSET 0.090977 0.030469 -0.008868
						CHANNELS 3 Zrotation Yrotation Xrotation
						JOINT LeftForeArm
						{
							OFFSET 0.259612 -0.012772 -0.027456
							CHANNELS 3 Zrotation Yrotation Xrotation
							JOINT LeftHand
							{
								OFFSET 0.249234 0.008986 -0.001171
								CHANNELS 3 Zrotation Yrotation Xrotation
								End Site
								{
									OFFSET 0.000000 0.000000 0.000000
								}
							}
						}
					}
				}
				JOINT RightShoulder
				{
					OFFSET -0.081759 0.118833 -0.038615
					CHANNELS 3 Zrotation Yrotation Xrotation
					JOINT RightArm
					{
						OFFSET -0.096012 0.032551 -0.009143
						CHANNELS 3 Zrotation Yrotation Xrotation
						JOINT RightForeArm
						{
							OFFSET -0.253742 -0.013329 -0.021401
							CHANNELS 3 Zrotation Yrotation Xrotation
							JOINT RightHand
							{
								OFFSET -0.255298 0.007772 -0.005559
								CHANNELS 3 Zrotation Yrotation Xrotation
								End Site
								{
									OFFSET 0.000000 0.000000 0.000000
								}
							}
						}
					}
				}
			}
		}
	}
}
MOTION
Frames: 16
Frame Time: 0.050000
-0.516529 0.727316 -1.536414 0.415744 -0.386957 7.718405 9.625876 -0.436855 -66.301000 -4.002616 0.798913 67.055508 1.118538 -1.245213 -7.505724 0.000000 0.000000 0.000000 -4.588562 0.491006 -4.821247 2.513126 0.864774 57.545240 -6.171121 -9.147533 -23.732481 0.000000 0.000000 0.000000 -8.046523 0.572113 9.552620 0.047608 -0.018163 -0.093922 6.350306 1.553989 3.440355 -7.234773 5.321769 -18.445200 0.000000 0.000000 0.000000 -5.444193 -10.546248 3.717139 -20.043987 -50.132456 4.583296 116.630695 -26.581841 -37.321191 0.000000 0.000000 0.000000 20.259855 12.319991 5.036177 53.322646 5.626120 -2.509844 14.700969 83.153595 16.708946 0.000000 0.000000 0.000000 
-0.515206 0.726633 -1.537818 0.367577 -0.464205 7.859120 9.327881 -0.588638 -65.912640 -3.547069 0.435024 66.307636 1.454431 -1.212746 -8.992320 0.000000 0.000000 0.000000 -5.768476 0.487055 -4.632984 3.273904 0.343296 57.622509 -5.839465 -5.838521 -25.687296 0.000000 0.000000 0.000000 -7.694431 0.501571 8.305806 -0.008285 0.014382 -0.327066 6.409661 1.252701 3.378189 -7.317770 5.357265 -17.495874 0.000000 0.000000 0.000000 -5.131128 -10.258958 3.630845 -23.138376 -50.173717 5.823557 117.397486 -28.777834 -40.761752 0.000000 0.000000 0.000000 19.368831 11.486750 4.422292 52.818934 3.422167 -3.407000 30.091419 82.399143 29.852688 0.000000 0.000000 0.000000 
-0.514328 0.725169 -1.540908 0.479537 -0.663827 7.775055 9.014421 -0.702132 -65.489987 -3.217091 0.204233 65.664486 1.760584 -1.092942 -10.221064 0.000000 0.000000 0.000000 -6.147052 0.489848 -4.626515 2.821680 0.756202 59.132516 -5.721736 -2.884600 -27.816425 0.000000 0.000000 0.000000 -7.987229 0.499460 7.115477 0.275492 -0.136813 0.353220 6.432521 1.521771 3.369871 -7.757289 5.638165 -17.017482 0.000000 0.000000 0.000000 -5.314199 -9.664392 3.371207 -26.566080 -49.952666 7.099047 120.529280 -31.476658 -47.160422 0.000000 0.000000 0.000000 19.105962 10.470002 3.897515 52.356945 2.302607 -3.862896 37.764790 80.673596 35.690145 0.000000 0.000000 0.000000 
-0.514576 0.725755 -1.547962 0.844520 -0.541975 7.489013 8.274014 -1.200351 -64.820565 -2.560798 -0.355893 64.344402 1.845642 -1.119176 -10.654617 0.000000 0.000000 0.000000 -7.527116 0.491100 -4.732898 3.382638 0.323790 61.304310 -5.408493 -1.435948 -27.225644 0.000000 0.000000 0.000000 -8.212985 0.492537 6.514355 0.146182 -0.058858 -0.268596 6.267462 1.382743 4.020859 -6.428385 4.895295 -16.897703 0.000000 0.000000 0.000000 -4.524312 -9.807353 3.429036 -30.263063 -49.926371 8.494537 122.093061 -32.659321 -50.175369 0.000000 0.000000 0.000000 17.728731 9.897717 3.584780 52.930417 0.976730 -4.543727 44.443840 80.380001 41.407490 0.000000 0.000000 0.000000 
-0.516629 0.726449 -1.560653 0.982340 -1.016518 7.155374 8.445171 -0.905646 -64.153158 -2.552233 -0.236889 62.523129 1.783912 -1.071330 -10.328026 0.000000 0.000000 0.000000 -8.417987 0.518308 -5.617490 2.805347 1.046938 65.268009 -4.243519 2.600004 -24.203886 0.000000 0.000000 0.000000 -9.063465 0.544656 5.954115 0.591789 -0.269683 -0.132133 6.054640 1.642698 4.175834 -5.661186 4.461264 -17.920317 0.000000 0.000000 0.000000 -4.434375 -9.329887 3.231266 -34.843240 -50.247654 10.401030 124.770719 -35.116492 -56.304616 0.000000 0.000000 0.000000 16.895582 9.549417 3.417231 52.737499 1.644371 -4.263992 51.684993 79.145496 46.937148 0.000000 0.000000 0.000000 
-0.521321 0.726996 -1.579991 1.462196 -0.938709 6.239254 7.918144 -1.239057 -63.240478 -1.809424 -0.786020 60.251859 1.379261 -1.374728 -8.970020 0.000000 0.000000 0.000000 -9.642629 0.466178 -4.316056 3.160904 0.787516 66.806941 -3.095642 2.310128 -18.398174 0.000000 0.000000 0.000000 -9.396522 0.549597 6.152111 -0.523356 0.273981 -1.291911 6.586564 0.432052 5.031030 -5.362108 4.183717 -18.598849 0.000000 0.000000 0.000000 -3.972109 -9.940705 3.574767 -37.241613 -49.823708 11.288879 126.176691 -36.407024 -58.806627 0.000000 0.000000 0.000000 13.481113 10.517169 3.623102 55.533477 1.143208 -4.807573 55.803305 78.494364 49.557839 0.000000 0.000000 0.000000 
-0.529023 0.727422 -1.606002 2.213186 -0.365921 5.162790 6.835951 -2.057376 -62.014540 -0.319991 -1.877825 56.788803 0.691479 -2.024634 -6.962014 0.000000 0.000000 0.000000 -11.797864 0.430404 -2.561110 3.186739 0.577574 69.956839 -1.108678 -1.925059 -1.913630 0.000000 0.000000 0.000000 -11.556836 0.717914 6.730738 1.311075 -0.548345 -1.665595 5.865344 -0.014883 5.352544 -5.696149 4.369464 -21.311301 0.000000 0.000000 0.000000 -4.459818 -9.890625 3.560862 -38.169427 -49.926592 11.665415 126.810981 -35.851418 -58.666717 0.000000 0.000000 0.000000 13.645914 10.872494 3.800153 54.797726 3.174629 -3.879018 64.188257 78.324364 56.954516 0.000000 0.000000 0.000000 
-0.539806 0.727102 -1.639844 2.600062 -1.424594 3.988261 7.167972 -1.485507 -62.597788 0.397538 -2.115840 55.539519 -0.892816 -2.167118 -0.476397 0.000000 0.000000 0.000000 -13.198595 0.509925 0.547617 1.381147 2.712142 69.837878 1.492657 -0.529799 8.143188 0.000000 0.000000 0.000000 -11.680561 0.658557 5.989939 0.021090 0.029194 -1.549255 6.765591 0.728776 6.017699 -6.841623 4.977327 -22.626273 0.000000 0.000000 0.000000 -5.222357 -9.627895 3.474495 -39.403713 -50.589195 12.381653 126.861688 -37.827234 -61.663266 0.000000 0.000000 0.000000 11.975608 12.068488 4.358120 56.139438 4.665869 -3.366319 76.739094 79.102838 69.391963 0.000000 0.000000 0.000000 
-0.554041 0.729491 -1.684887 2.995221 -2.535769 3.843146 7.651262 -0.781088 -62.434180 1.591999 -2.454820 50.343437 -2.562205 -2.252920 6.200317 0.000000 0.000000 0.000000 -13.446419 0.643528 4.146100 -1.054799 4.737278 64.126185 3.148888 1.514542 10.875490 0.000000 0.000000 0.000000 -10.955819 0.589177 5.482042 -1.171666 0.559624 -0.209206 6.537105 2.741661 4.207209 -6.143099 4.731562 -22.089439 0.000000 0.000000 0.000000 -6.988304 -11.758613 4.211931 -35.999912 -49.940357 10.761700 125.797026 -38.025339 -61.957583 0.000000 0.000000 0.000000 13.514918 13.696559 5.432001 54.546916 7.235658 -1.929622 81.889392 82.832572 78.640769 0.000000 0.000000 0.000000 
-0.572455 0.732366 -1.742637 3.149276 -4.214820 4.462872 11.134424 1.898972 -61.703134 -1.258885 -0.381954 42.034312 -3.981447 -1.023407 14.835188 0.000000 0.000000 0.000000 -11.267224 0.550724 3.728696 -3.412742 6.527534 59.174093 2.387843 1.624800 7.308435 0.000000 0.000000 0.000000 -9.963457 0.609654 6.426236 -1.369574 0.653494 -0.021741 4.462133 6.651655 2.243725 -4.855728 4.372129 -21.842059 0.000000 0.000000 0.000000 -8.465359 -12.551506 4.059431 -35.338014 -50.820674 10.709860 126.542612 -39.872725 -67.559687 0.000000 0.000000 0.000000 15.415119 13.936948 6.459312 53.332200 11.409442 0.039022 80.122453 86.829157 82.595318 0.000000 0.000000 0.000000 
-0.593015 0.739016 -1.808012 3.869919 -2.311070 5.404617 11.365107 1.297894 -61.645275 -0.818176 -0.626176 32.308653 -8.154480 -2.830533 24.955420 0.000000 0.000000 0.000000 -8.871793 0.369776 0.818426 -1.359345 4.221780 57.329037 -2.445185 -6.463184 0.796910 0.000000 0.000000 0.000000 -8.227892 0.519637 8.235471 -2.085404 0.985097 -1.772604 2.837744 5.921426 2.728904 -4.252833 4.188886 -24.686245 0.000000 0.000000 0.000000 -6.214138 -12.404417 3.973582 -35.693217 -53.282800 11.531498 122.743698 -39.356136 -63.055297 0.000000 0.000000 0.000000 13.874277 13.872337 6.444602 54.791620 15.242083 1.850602 147.825040 89.620192 153.936908 0.000000 0.000000 0.000000 
-0.611743 0.744917 -1.870849 4.243734 -0.973971 5.643996 13.157171 1.781163 -60.921196 -5.341195 1.027227 26.208073 -5.940764 -0.241075 23.761727 0.000000 0.000000 0.000000 -7.643973 0.385531 -2.420815 0.761000 2.294238 57.017790 -5.862963 -13.091230 -8.128279 0.000000 0.000000 0.000000 -6.522388 0.376901 10.576559 -2.357448 1.112088 -2.251189 1.811739 4.130469 2.851058 -4.979636 4.453616 -25.422794 0.000000 0.000000 0.000000 -5.578848 -10.862839 3.478839 -33.339456 -53.722359 10.708328 122.366780 -39.808190 -62.743354 0.000000 0.000000 0.000000 13.167198 14.609054 6.557566 54.286971 18.105508 3.164976 -41.509249 89.736718 -35.493349 0.000000 0.000000 0.000000 
-0.626321 0.751130 -1.923568 4.003627 0.494346 5.639711 12.817607 1.075020 -62.161333 -7.352357 1.912402 33.326950 -1.421487 3.280697 14.759957 0.000000 0.000000 0.000000 -6.727673 0.484210 -5.864341 3.242385 0.094267 58.152005 -8.879683 -22.893114 -16.756709 0.000000 0.000000 0.000000 -5.212083 0.202833 12.253090 -2.334084 1.109997 -2.675287 2.550186 3.074403 3.154950 -6.743686 5.254002 -24.524439 0.000000 0.000000 0.000000 -6.107097 -11.814132 3.911089 -28.412490 -52.266577 8.216582 120.944708 -37.825288 -58.281017 0.000000 0.000000 0.000000 11.661891 14.850469 6.432961 53.937434 17.288863 2.749757 -113.771520 89.181101 -107.307201 0.000000 0.000000 0.000000 
-0.636959 0.755722 -1.964403 3.602864 0.853513 5.918934 12.591018 0.821629 -63.106524 -10.123222 4.627568 55.314382 3.339802 7.776464 2.011096 0.000000 0.000000 0.000000 -6.609749 0.623119 -9.251249 3.808574 -0.453189 59.487083 -10.423917 -29.185886 -17.978563 0.000000 0.000000 0.000000 -5.103989 0.188324 12.921492 -1.475560 0.720104 -1.880461 3.242459 2.323801 2.896695 -7.254003 5.441991 -22.936318 0.000000 0.000000 0.000000 -5.735774 -10.947122 3.650196 -25.148309 -51.994245 6.868154 121.365171 -36.216080 -55.980639 0.000000 0.000000 0.000000 11.768493 14.903987 6.318833 52.886115 17.136787 2.609572 65.613751 88.934082 69.782132 0.000000 0.000000 0.000000 
-0.644248 0.756517 -1.995537 3.988479 1.421571 6.082341 11.292521 -0.156781 -61.393616 -11.081430 6.871683 72.624846 2.532045 5.814142 1.158614 0.000000 0.000000 0.000000 -6.795896 0.662033 -10.751379 4.353390 -1.065450 59.472194 -12.987827 -37.655979 -16.340234 0.000000 0.000000 0.000000 -4.817716 0.140735 13.689302 -1.606727 0.782217 -2.013481 3.490160 0.603768 3.474638 -7.495063 5.424578 -23.166737 0.000000 0.000000 0.000000 -3.436183 -10.401568 3.593227 -21.849922 -52.165668 5.622983 119.828641 -31.329527 -46.775041 0.000000 0.000000 0.000000 11.123469 14.002813 5.570316 53.786241 16.709011 2.433225 96.689387 87.843557 99.004648 0.000000 0.000000 0.000000 
-0.649708 0.754546 -2.019424 4.406572 3.514203 6.284180 10.075174 -1.521988 -59.212061 -11.944144 7.262684 75.691015 0.357009 3.020031 5.362096 0.000000 0.000000 0.000000 -7.169969 0.662105 -13.177215 5.004576 -2.459814 61.503006 -15.433709 -42.117622 -11.498613 0.000000 0.000000 0.000000 -4.644921 0.070574 14.235445 -1.059902 0.550768 -2.216114 3.900314 -1.167835 3.747604 -8.358524 5.788640 -23.289407 0.000000 0.000000 0.000000 -4.167499 -11.787656 4.215061 -15.723420 -51.451787 3.091189 118.199131 -27.875595 -40.207237 0.000000 0.000000 0.000000 12.383244 13.546940 5.270859 52.621573 14.263722 1.212746 119.025434 86.495921 120.036426 0.000000 0.000000 0.000000 
